<svg width="14" height="14" viewBox="0 0 14 14" fill="none" xmlns="http://www.w3.org/2000/svg">
<path d="M10.0372 5.54145H4.66807L5.3959 4.78895C5.50132 4.67911 5.56055 4.53013 5.56055 4.37478C5.56055 4.21944 5.50132 4.07046 5.3959 3.96062C5.29047 3.85077 5.14748 3.78906 4.99839 3.78906C4.8493 3.78906 4.70631 3.85077 4.60089 3.96062L2.92129 5.71062C2.87032 5.76609 2.83036 5.83151 2.80372 5.90312C2.74772 6.04514 2.74772 6.20443 2.80372 6.34645C2.83036 6.41805 2.87032 6.48347 2.92129 6.53895L4.60089 8.28895C4.65293 8.34362 4.71485 8.38702 4.78308 8.41664C4.8513 8.44625 4.92448 8.4615 4.99839 8.4615C5.0723 8.4615 5.14548 8.44625 5.2137 8.41664C5.28193 8.38702 5.34385 8.34362 5.3959 8.28895C5.44837 8.23472 5.49002 8.1702 5.51845 8.09912C5.54687 8.02803 5.5615 7.95179 5.5615 7.87478C5.5615 7.79778 5.54687 7.72153 5.51845 7.65045C5.49002 7.57936 5.44837 7.51484 5.3959 7.46062L4.66807 6.70812H10.0372C10.1857 6.70812 10.3281 6.76957 10.4331 6.87897C10.5381 6.98837 10.5971 7.13674 10.5971 7.29145V9.62478C10.5971 9.77949 10.656 9.92787 10.761 10.0373C10.866 10.1467 11.0084 10.2081 11.1569 10.2081C11.3054 10.2081 11.4478 10.1467 11.5528 10.0373C11.6578 9.92787 11.7168 9.77949 11.7168 9.62478V7.29145C11.7168 6.82732 11.5398 6.3822 11.2248 6.05401C10.9099 5.72582 10.4826 5.54145 10.0372 5.54145Z" fill="#4F77FF"/>
</svg>
