<svg width="10" height="17" viewBox="0 0 10 17" fill="none" xmlns="http://www.w3.org/2000/svg">
<path d="M9.43139 3.36929H6.60664C6.08661 3.36929 5.66505 3.7494 5.66505 4.21829V6.76531H9.43139C9.53849 6.76317 9.64005 6.80809 9.70372 6.88577C9.76739 6.96344 9.78523 7.06417 9.75153 7.15585L9.05476 9.02367C8.99055 9.1951 8.81288 9.31099 8.61221 9.31233H5.66505V15.6799C5.66505 15.9143 5.45427 16.1044 5.19426 16.1044H2.84029C2.58028 16.1044 2.3695 15.9143 2.3695 15.6799V9.31233H0.957121C0.697109 9.31233 0.486328 9.12227 0.486328 8.88783V7.18982C0.486328 6.95537 0.697109 6.76531 0.957121 6.76531H2.3695V4.21829C2.3695 2.34272 4.05575 0.822266 6.13584 0.822266H9.43139C9.69141 0.822266 9.90219 1.01232 9.90219 1.24677V2.94478C9.90219 3.17923 9.69141 3.36929 9.43139 3.36929Z" fill="#7B88A8"/>
</svg>
