<svg width="22" height="22" viewBox="0 0 22 22" fill="none" xmlns="http://www.w3.org/2000/svg">
<path id="Rectangle 74" d="M1 3C1 1.89543 1.89543 1 3 1H19C20.1046 1 21 1.89543 21 3V3.81751C21 4.57739 20.7116 5.30895 20.1932 5.86447L14.5379 11.9237C14.1922 12.294 14 12.7817 14 13.2883V17.382C14 17.7607 13.786 18.107 13.4472 18.2764L9.44721 20.2764C8.78231 20.6088 8 20.1253 8 19.382V13.2883C8 12.7817 7.80776 12.294 7.46211 11.9237L1.80683 5.86446C1.28836 5.30895 1 4.57739 1 3.81751V3Z" fill="#2B3F6C" stroke="#2B3F6C" stroke-width="1.5"/>
</svg>
