<svg width="20" height="17" viewBox="0 0 20 17" fill="none" xmlns="http://www.w3.org/2000/svg">
<path fill-rule="evenodd" clip-rule="evenodd" d="M10.1799 2.52369C11.2578 1.41652 12.7679 0.765431 14.3663 0.71875C17.1921 0.71875 19.4829 2.86587 19.4829 5.51449C19.4829 8.65022 15.7638 12.0868 13.5333 14.148C13.3325 14.3335 13.1437 14.5079 12.9708 14.67L10.8498 16.658C10.719 16.7807 10.5417 16.8497 10.3567 16.8499H10.0032C9.8182 16.8497 9.64085 16.7807 9.51012 16.658L7.38904 14.67C7.21616 14.5079 7.0274 14.3335 6.82659 14.148C4.59605 12.0868 0.876953 8.65022 0.876953 5.51449C0.876953 2.86587 3.16775 0.71875 5.9936 0.71875C7.59194 0.765431 9.10206 1.41652 10.1799 2.52369ZM10.1807 14.8185L12.2273 12.9264C14.1158 11.1825 17.6231 7.92142 17.6231 5.51483C17.6231 4.70088 17.2762 3.92065 16.6595 3.34756C16.0429 2.77447 15.2075 2.45603 14.3391 2.463C12.8928 2.58885 11.5872 3.32756 10.7947 4.46849C10.7059 4.57721 10.5686 4.64154 10.4226 4.64288H10.0039C9.78656 4.64233 9.58123 4.54931 9.44574 4.39001C8.66578 3.29113 7.39669 2.58257 5.99433 2.463C4.19606 2.463 2.73828 3.82935 2.73828 5.51483C2.73828 7.92142 6.24551 11.1825 8.13402 12.9264L10.1807 14.8185Z" fill="#7B88A8"/>
</svg>
