<svg width="1554" height="700" viewBox="0 0 1554 700" fill="none" xmlns="http://www.w3.org/2000/svg">
<path d="M1384 281.582C1391.4 288.985 1400.18 294.851 1409.86 298.845C1419.53 302.838 1429.91 304.881 1440.39 304.857C1450.87 304.833 1461.26 302.743 1470.95 298.705C1480.64 294.667 1489.45 288.762 1496.88 281.325C1504.31 273.888 1510.21 265.066 1514.25 255.362C1518.28 245.659 1520.37 235.263 1520.39 224.77C1520.42 214.277 1518.37 203.891 1514.39 194.206C1510.4 184.52 1504.54 175.725 1497.14 168.322L1472.25 193.236C1480.62 201.608 1485.3 212.979 1485.27 224.846C1485.25 236.714 1480.51 248.106 1472.11 256.517C1463.71 264.927 1452.33 269.668 1440.47 269.695C1428.62 269.722 1417.26 265.033 1408.9 256.661L1384 281.582Z" fill="#FF9513"/>
<path d="M1512.82 302.984C1518.01 290.498 1512.13 276.21 1499.68 271.071C1487.23 265.932 1472.93 271.889 1467.74 284.375C1462.55 296.862 1468.43 311.15 1480.88 316.288C1493.33 321.427 1507.63 315.471 1512.82 302.984Z" fill="#FFC0EC"/>
<path d="M816 488.659L848.609 488.659C848.628 506.546 855.734 523.695 868.368 536.343C881.002 548.992 898.132 556.107 916 556.129L916 588.794C860.861 588.794 816 543.886 816 488.659Z" fill="#61DCDF"/>
<ellipse cx="15.0001" cy="30.1769" rx="15" ry="15.0158" fill="#F9C45C"/>
<ellipse cx="87.5" cy="410.077" rx="7.5" ry="7.5079" fill="#FFC0EC"/>
<path d="M700 65.161L680.435 65.161C680.423 75.8899 676.159 86.176 668.579 93.7629C660.999 101.35 650.721 105.618 640 105.631L640 125.224C673.083 125.224 700 98.2873 700 65.161Z" fill="#FFC0EC"/>
<ellipse cx="1545.5" cy="7.65322" rx="7.5" ry="7.5079" fill="#FF6D43"/>
<ellipse cx="467.5" cy="691.508" rx="7.5" ry="7.5079" fill="#FF9513"/>
<ellipse cx="1416.5" cy="546.22" rx="7.5" ry="7.5079" fill="#61DCDF"/>
</svg>
