<svg width="18" height="16" viewBox="0 0 18 16" fill="none" xmlns="http://www.w3.org/2000/svg">
<path fill-rule="evenodd" clip-rule="evenodd" d="M12.7406 0.670898H5.20793C2.60781 0.670898 0.5 2.57146 0.5 4.91593V11.708C0.5 14.0525 2.60781 15.953 5.20793 15.953H12.7406C15.3407 15.953 17.4485 14.0525 17.4485 11.708V4.91593C17.4485 2.57146 15.3407 0.670898 12.7406 0.670898ZM15.8014 11.7086C15.7963 13.2305 14.4292 14.4632 12.7413 14.4678H5.20859C3.52066 14.4632 2.15361 13.2305 2.14844 11.7086V4.9165C2.15361 3.39453 3.52066 2.16189 5.20859 2.15723H12.7413C14.4292 2.16189 15.7963 3.39453 15.8014 4.9165V11.7086ZM13.4474 5.12761C13.9675 5.12761 14.389 4.7475 14.389 4.27862C14.389 3.80973 13.9675 3.42963 13.4474 3.42963C12.9274 3.42963 12.5059 3.80973 12.5059 4.27862C12.5059 4.7475 12.9274 5.12761 13.4474 5.12761ZM8.97346 4.49317C6.63336 4.49317 4.73633 6.20367 4.73633 8.31369C4.73633 10.4237 6.63336 12.1342 8.97346 12.1342C11.3136 12.1342 13.2106 10.4237 13.2106 8.31369C13.2131 7.29973 12.7675 6.32665 11.9723 5.60968C11.1772 4.8927 10.098 4.49091 8.97346 4.49317ZM6.38477 8.31237C6.38477 9.60182 7.54406 10.6471 8.97413 10.6471C10.4042 10.6471 11.5635 9.60182 11.5635 8.31237C11.5635 7.02291 10.4042 5.9776 8.97413 5.9776C7.54406 5.9776 6.38477 7.02291 6.38477 8.31237Z" fill="#7B88A8"/>
</svg>
