<svg width="21" height="16" viewBox="0 0 21 16" fill="none" xmlns="http://www.w3.org/2000/svg">
<path fill-rule="evenodd" clip-rule="evenodd" d="M18.1817 0.670898H2.1747C1.06965 0.670898 0.173828 1.47864 0.173828 2.47504V13.2999C0.173828 14.2963 1.06965 15.104 2.1747 15.104H18.1817C19.2867 15.104 20.1825 14.2963 20.1825 13.2999V2.47504C20.1825 1.47864 19.2867 0.670898 18.1817 0.670898ZM18.1808 2.47644V5.09244L10.8276 9.73809C10.4365 9.98281 9.91807 9.98281 9.52703 9.73809L2.17383 5.09244V2.47644H18.1808ZM2.17383 6.98535V13.2999H18.1808V6.98535L11.828 10.9906C10.8366 11.6154 9.51797 11.6154 8.52659 10.9906L2.17383 6.98535Z" fill="#7B88A8"/>
</svg>
