<svg width="176" height="44" viewBox="0 0 176 44" fill="none" xmlns="http://www.w3.org/2000/svg">
<path d="M46.128 23.736V21.072H50.04C50.552 21.072 51.016 20.968 51.432 20.76C51.848 20.552 52.176 20.256 52.416 19.872C52.656 19.472 52.776 18.992 52.776 18.432C52.776 17.888 52.656 17.416 52.416 17.016C52.176 16.616 51.848 16.312 51.432 16.104C51.016 15.896 50.552 15.792 50.04 15.792H46.128V13.128H50.376C51.448 13.128 52.408 13.344 53.256 13.776C54.12 14.208 54.8 14.824 55.296 15.624C55.792 16.408 56.04 17.344 56.04 18.432C56.04 19.52 55.792 20.464 55.296 21.264C54.8 22.048 54.12 22.656 53.256 23.088C52.408 23.52 51.448 23.736 50.376 23.736H46.128ZM43.728 30V13.128H46.992V30H43.728ZM62.69 30.24C61.522 30.24 60.466 29.976 59.522 29.448C58.594 28.904 57.85 28.176 57.29 27.264C56.746 26.336 56.474 25.304 56.474 24.168C56.474 23.032 56.746 22.016 57.29 21.12C57.834 20.208 58.578 19.488 59.522 18.96C60.466 18.416 61.514 18.144 62.666 18.144C63.85 18.144 64.906 18.416 65.834 18.96C66.778 19.488 67.522 20.208 68.066 21.12C68.61 22.016 68.882 23.032 68.882 24.168C68.882 25.304 68.61 26.336 68.066 27.264C67.522 28.176 66.778 28.904 65.834 29.448C64.906 29.976 63.858 30.24 62.69 30.24ZM62.666 27.312C63.258 27.312 63.778 27.184 64.226 26.928C64.69 26.656 65.042 26.288 65.282 25.824C65.538 25.344 65.666 24.8 65.666 24.192C65.666 23.584 65.538 23.048 65.282 22.584C65.026 22.12 64.674 21.76 64.226 21.504C63.778 21.232 63.258 21.096 62.666 21.096C62.09 21.096 61.578 21.232 61.13 21.504C60.682 21.76 60.33 22.12 60.074 22.584C59.818 23.048 59.69 23.584 59.69 24.192C59.69 24.8 59.818 25.344 60.074 25.824C60.33 26.288 60.682 26.656 61.13 26.928C61.578 27.184 62.09 27.312 62.666 27.312ZM70.5061 30V12.648H73.6501V30H70.5061ZM76.0357 30V12.648H79.1797V30H76.0357ZM87.0134 30.24C85.8454 30.24 84.7894 29.976 83.8454 29.448C82.9174 28.904 82.1734 28.176 81.6134 27.264C81.0694 26.336 80.7974 25.304 80.7974 24.168C80.7974 23.032 81.0694 22.016 81.6134 21.12C82.1574 20.208 82.9014 19.488 83.8454 18.96C84.7894 18.416 85.8374 18.144 86.9894 18.144C88.1734 18.144 89.2294 18.416 90.1574 18.96C91.1014 19.488 91.8454 20.208 92.3894 21.12C92.9334 22.016 93.2054 23.032 93.2054 24.168C93.2054 25.304 92.9334 26.336 92.3894 27.264C91.8454 28.176 91.1014 28.904 90.1574 29.448C89.2294 29.976 88.1814 30.24 87.0134 30.24ZM86.9894 27.312C87.5814 27.312 88.1014 27.184 88.5494 26.928C89.0134 26.656 89.3654 26.288 89.6054 25.824C89.8614 25.344 89.9894 24.8 89.9894 24.192C89.9894 23.584 89.8614 23.048 89.6054 22.584C89.3494 22.12 88.9974 21.76 88.5494 21.504C88.1014 21.232 87.5814 21.096 86.9894 21.096C86.4134 21.096 85.9014 21.232 85.4534 21.504C85.0054 21.76 84.6534 22.12 84.3974 22.584C84.1414 23.048 84.0134 23.584 84.0134 24.192C84.0134 24.8 84.1414 25.344 84.3974 25.824C84.6534 26.288 85.0054 26.656 85.4534 26.928C85.9014 27.184 86.4134 27.312 86.9894 27.312ZM100.302 30.24C99.1175 30.24 98.0535 29.976 97.1095 29.448C96.1655 28.92 95.4215 28.2 94.8775 27.288C94.3335 26.376 94.0615 25.352 94.0615 24.216C94.0615 23.064 94.3335 22.032 94.8775 21.12C95.4215 20.208 96.1655 19.488 97.1095 18.96C98.0695 18.416 99.1335 18.144 100.302 18.144C101.214 18.144 102.054 18.312 102.822 18.648C103.59 18.984 104.254 19.464 104.814 20.088L102.798 22.128C102.494 21.792 102.126 21.536 101.694 21.36C101.278 21.184 100.814 21.096 100.302 21.096C99.7255 21.096 99.2055 21.232 98.7415 21.504C98.2935 21.76 97.9335 22.12 97.6615 22.584C97.4055 23.032 97.2775 23.568 97.2775 24.192C97.2775 24.8 97.4055 25.344 97.6615 25.824C97.9335 26.288 98.2935 26.656 98.7415 26.928C99.2055 27.184 99.7255 27.312 100.302 27.312C100.83 27.312 101.302 27.224 101.718 27.048C102.15 26.856 102.518 26.584 102.822 26.232L104.862 28.272C104.27 28.912 103.59 29.4 102.822 29.736C102.054 30.072 101.214 30.24 100.302 30.24ZM113.634 30L109.146 24.024L113.61 18.408H117.234L112.002 24.744L112.122 23.208L117.474 30H113.634ZM106.242 30V12.648H109.386V30H106.242Z" fill="#2D3958"/>
<g clip-path="url(#clip0_747_1594)">
<path d="M32 16C32 11.7565 30.3143 7.68687 27.3137 4.68629C24.3131 1.68571 20.2435 0 16 0C11.7565 0 7.68687 1.68571 4.68629 4.68629C1.68571 7.68687 0 11.7565 0 16C0 16.2133 3.91006e-07 16.4267 0.0170671 16.64V16H16.0171V32C20.2576 31.9955 24.3229 30.3078 27.3197 27.3077C30.3166 24.3076 32 20.2405 32 16V16Z" fill="#61DCDF"/>
<path d="M0 17V44H16V32.3071H15.9872C11.8545 32.3071 7.88218 30.7135 4.90207 27.8602C1.92197 25.0069 0.165306 21.1151 0 17Z" fill="#886CFF"/>
<path d="M0 16V16.64C0.165262 20.7693 1.92146 24.6746 4.90077 27.5378C7.88007 30.401 11.8514 32 15.9829 32H16V16H0Z" fill="#F9E492"/>
</g>
<defs>
<clipPath id="clip0_747_1594">
<rect width="32" height="44" fill="white"/>
</clipPath>
</defs>
</svg>
