<svg width="20" height="20" viewBox="0 0 20 20" fill="none" xmlns="http://www.w3.org/2000/svg">
<g id="u:linkedin">
<path id="Vector" d="M17.0585 1.66711H2.9418C2.78311 1.6649 2.62555 1.69398 2.4781 1.75268C2.33066 1.81138 2.19622 1.89854 2.08246 2.0092C1.96871 2.11986 1.87786 2.25185 1.81512 2.39762C1.75238 2.54339 1.71897 2.70009 1.7168 2.85878V17.1421C1.71897 17.3008 1.75238 17.4575 1.81512 17.6033C1.87786 17.749 1.96871 17.881 2.08246 17.9917C2.19622 18.1023 2.33066 18.1895 2.4781 18.2482C2.62555 18.3069 2.78311 18.336 2.9418 18.3338H17.0585C17.2171 18.336 17.3747 18.3069 17.5222 18.2482C17.6696 18.1895 17.804 18.1023 17.9178 17.9917C18.0316 17.881 18.1224 17.749 18.1851 17.6033C18.2479 17.4575 18.2813 17.3008 18.2835 17.1421V2.85878C18.2813 2.70009 18.2479 2.54339 18.1851 2.39762C18.1224 2.25185 18.0316 2.11986 17.9178 2.0092C17.804 1.89854 17.6696 1.81138 17.5222 1.75268C17.3747 1.69398 17.2171 1.6649 17.0585 1.66711ZM6.7418 15.6171H4.2418V8.11711H6.7418V15.6171ZM5.4918 7.06711C5.14702 7.06711 4.81636 6.93014 4.57256 6.68635C4.32876 6.44255 4.1918 6.11189 4.1918 5.76711C4.1918 5.42233 4.32876 5.09167 4.57256 4.84787C4.81636 4.60407 5.14702 4.46711 5.4918 4.46711C5.67488 4.44635 5.86028 4.46449 6.03586 4.52034C6.21144 4.5762 6.37325 4.66852 6.51068 4.79124C6.64811 4.91397 6.75807 5.06434 6.83336 5.23251C6.90864 5.40068 6.94756 5.58286 6.94756 5.76711C6.94756 5.95136 6.90864 6.13354 6.83336 6.30171C6.75807 6.46988 6.64811 6.62025 6.51068 6.74297C6.37325 6.8657 6.21144 6.95801 6.03586 7.01387C5.86028 7.06973 5.67488 7.08787 5.4918 7.06711ZM15.7585 15.6171H13.2585V11.5921C13.2585 10.5838 12.9001 9.92544 11.9918 9.92544C11.7107 9.9275 11.437 10.0157 11.2075 10.1781C10.978 10.3405 10.8039 10.5693 10.7085 10.8338C10.6433 11.0296 10.615 11.2359 10.6251 11.4421V15.6088H8.12513C8.12513 15.6088 8.12513 8.79211 8.12513 8.10878H10.6251V9.16711C10.8522 8.77303 11.1826 8.44838 11.5805 8.22811C11.9784 8.00785 12.4289 7.90032 12.8835 7.91711C14.5501 7.91711 15.7585 8.99211 15.7585 11.3004V15.6171Z" fill="#7B88A8"/>
</g>
</svg>
