<svg width="20" height="20" viewBox="0 0 20 20" fill="none" xmlns="http://www.w3.org/2000/svg">
<g id="u:facebook">
<path id="Vector" d="M17.4165 1.66699H2.58317C2.34006 1.66699 2.1069 1.76357 1.93499 1.93548C1.76308 2.10739 1.6665 2.34054 1.6665 2.58366V17.417C1.6665 17.5374 1.69021 17.6566 1.73628 17.7678C1.78235 17.879 1.84987 17.9801 1.93499 18.0652C2.02011 18.1503 2.12116 18.2178 2.23238 18.2639C2.34359 18.3099 2.46279 18.3337 2.58317 18.3337H10.5665V11.8753H8.39984V9.37533H10.5665V7.50033C10.5216 7.06012 10.5736 6.61543 10.7188 6.19744C10.8639 5.77945 11.0988 5.39828 11.4069 5.08067C11.715 4.76306 12.0888 4.51669 12.5022 4.35886C12.9156 4.20102 13.3585 4.13554 13.7998 4.16699C14.4484 4.163 15.0967 4.19639 15.7415 4.26699V6.51699H14.4165C13.3665 6.51699 13.1665 7.01699 13.1665 7.74199V9.35033H15.6665L15.3415 11.8503H13.1665V18.3337H17.4165C17.5369 18.3337 17.6561 18.3099 17.7673 18.2639C17.8785 18.2178 17.9796 18.1503 18.0647 18.0652C18.1498 17.9801 18.2173 17.879 18.2634 17.7678C18.3095 17.6566 18.3332 17.5374 18.3332 17.417V2.58366C18.3332 2.46328 18.3095 2.34408 18.2634 2.23287C18.2173 2.12165 18.1498 2.0206 18.0647 1.93548C17.9796 1.85036 17.8785 1.78284 17.7673 1.73677C17.6561 1.6907 17.5369 1.66699 17.4165 1.66699Z" fill="#7B88A8"/>
</g>
</svg>
