<svg width="20" height="20" viewBox="0 0 20 20" fill="none" xmlns="http://www.w3.org/2000/svg">
<g id="u:twitter">
<path id="Vector" d="M18.3332 4.83351C17.7068 5.10525 17.0444 5.28489 16.3665 5.36684C17.0816 4.93961 17.6176 4.26749 17.8748 3.47517C17.2028 3.87523 16.4671 4.15709 15.6998 4.30851C15.187 3.75232 14.504 3.38209 13.758 3.25588C13.012 3.12968 12.2453 3.25464 11.578 3.61117C10.9107 3.96769 10.3806 4.53562 10.0709 5.22587C9.76113 5.91613 9.68925 6.68967 9.8665 7.42517C8.50769 7.35645 7.17854 7.00264 5.96538 6.38673C4.75223 5.77082 3.68221 4.90659 2.82484 3.85017C2.52412 4.37531 2.3661 4.97003 2.3665 5.57517C2.36544 6.13716 2.50335 6.69069 2.76797 7.18648C3.03258 7.68227 3.41569 8.10493 3.88317 8.41684C3.33982 8.40206 2.80808 8.25626 2.33317 7.99184V8.03351C2.33724 8.82092 2.61317 9.58275 3.11427 10.1901C3.61537 10.7975 4.31088 11.2132 5.08317 11.3668C4.78588 11.4573 4.47723 11.505 4.1665 11.5085C3.95141 11.506 3.73686 11.4865 3.52484 11.4502C3.74476 12.1275 4.17036 12.7195 4.7424 13.1436C5.31444 13.5678 6.00448 13.8031 6.7165 13.8168C5.51417 14.7629 4.02974 15.2792 2.49984 15.2835C2.22128 15.2844 1.94295 15.2677 1.6665 15.2335C3.22853 16.2421 5.04885 16.7774 6.90817 16.7752C8.19125 16.7885 9.46412 16.546 10.6524 16.0619C11.8408 15.5778 12.9207 14.8617 13.8292 13.9556C14.7377 13.0494 15.4565 11.9713 15.9436 10.7843C16.4308 9.59719 16.6765 8.32495 16.6665 7.04184C16.6665 6.90017 16.6665 6.75017 16.6665 6.60017C17.3204 6.11252 17.8844 5.5147 18.3332 4.83351Z" fill="#7B88A8"/>
</g>
</svg>
