<svg width="24" height="24" viewBox="0 0 24 24" fill="none" xmlns="http://www.w3.org/2000/svg">
<g id="Iconex/Filled/Right square 2">
<g id="Right">
<path id="Subtract" fill-rule="evenodd" clip-rule="evenodd" d="M22 7C22 4.23858 19.7614 2 17 2H7C4.23858 2 2 4.23858 2 7V17C2 19.7614 4.23858 22 7 22H17C19.7614 22 22 19.7614 22 17V7ZM14.1893 11.25L12.4697 9.53033C12.1768 9.23744 12.1768 8.76256 12.4697 8.46967C12.7626 8.17678 13.2374 8.17678 13.5303 8.46967L15.8232 10.7626C16.5066 11.446 16.5066 12.554 15.8232 13.2374L13.5303 15.5303C13.2374 15.8232 12.7626 15.8232 12.4697 15.5303C12.1768 15.2374 12.1768 14.7626 12.4697 14.4697L14.1893 12.75L8 12.75C7.58579 12.75 7.25 12.4142 7.25 12C7.25 11.5858 7.58579 11.25 8 11.25L14.1893 11.25Z" fill="#2B3F6C"/>
</g>
</g>
</svg>
