<svg width="50" height="50" viewBox="0 0 50 50" fill="none" xmlns="http://www.w3.org/2000/svg">
<circle opacity="0.1" cx="25" cy="25" r="25" fill="#00BB98"/>
<path opacity="0.4" d="M29.676 15H20.333C16.93 15 15 16.929 15 20.333V29.667C15 33.07 16.929 35 20.333 35H29.676C33.08 35 35 33.071 35 29.667V20.333C35 16.93 33.08 15 29.676 15Z" fill="#00BB98"/>
<path d="M20.369 22.3689C20.1486 22.3705 19.9378 22.4593 19.7828 22.616C19.6278 22.7727 19.5412 22.9845 19.542 23.2049V30.0749C19.542 30.2953 19.6295 30.5066 19.7854 30.6625C19.9412 30.8183 20.1526 30.9059 20.373 30.9059C20.5934 30.9059 20.8048 30.8183 20.9606 30.6625C21.1164 30.5066 21.204 30.2953 21.204 30.0749V23.2049C21.2041 23.0951 21.1826 22.9864 21.1407 22.885C21.0988 22.7836 21.0373 22.6914 20.9598 22.6138C20.8822 22.5361 20.7901 22.4745 20.6888 22.4325C20.5874 22.3905 20.4787 22.3689 20.369 22.3689ZM25.035 19.0889C24.8148 19.0907 24.6042 19.1797 24.4494 19.3364C24.2946 19.493 24.2082 19.7046 24.209 19.9249V30.0749C24.209 30.2953 24.2965 30.5066 24.4524 30.6625C24.6082 30.8183 24.8196 30.9059 25.04 30.9059C25.2604 30.9059 25.4718 30.8183 25.6276 30.6625C25.7834 30.5066 25.871 30.2953 25.871 30.0749V19.9259C25.8711 19.816 25.8496 19.7073 25.8076 19.6058C25.7657 19.5043 25.7041 19.4121 25.6264 19.3344C25.5488 19.2568 25.4566 19.1952 25.3551 19.1532C25.2536 19.1113 25.1448 19.0897 25.035 19.0899V19.0889ZM29.64 25.9969C29.5303 25.9967 29.4216 26.0182 29.3202 26.0601C29.2187 26.102 29.1266 26.1635 29.0489 26.2411C28.9713 26.3186 28.9097 26.4107 28.8677 26.5121C28.8256 26.6135 28.804 26.7221 28.804 26.8319V30.0769C28.804 30.2974 28.8916 30.5089 29.0475 30.6648C29.2035 30.8208 29.415 30.9084 29.6355 30.9084C29.856 30.9084 30.0675 30.8208 30.2235 30.6648C30.3794 30.5089 30.467 30.2974 30.467 30.0769V26.8299C30.4675 26.6096 30.3808 26.3981 30.2258 26.2417C30.0709 26.0852 29.8602 25.9965 29.64 25.9949" fill="#00BB98"/>
</svg>
