<svg width="50" height="50" viewBox="0 0 50 50" fill="none" xmlns="http://www.w3.org/2000/svg">
<circle opacity="0.1" cx="25" cy="25" r="25" fill="#377CFD"/>
<path opacity="0.4" d="M29.0761 15H32.4611C32.796 15.0013 33.1272 15.0686 33.4361 15.1979C33.7449 15.3273 34.0252 15.5163 34.261 15.754C34.4968 15.9917 34.6834 16.2736 34.8102 16.5835C34.937 16.8933 35.0016 17.2252 35.0001 17.56V20.975C35.0016 21.3098 34.937 21.6417 34.8102 21.9515C34.6834 22.2614 34.4968 22.5433 34.261 22.781C34.0252 23.0187 33.7449 23.2077 33.4361 23.3371C33.1272 23.4664 32.796 23.5337 32.4611 23.535H29.0761C28.7413 23.5337 28.41 23.4664 28.1012 23.3371C27.7924 23.2077 27.5121 23.0187 27.2763 22.781C27.0405 22.5433 26.8539 22.2614 26.727 21.9515C26.6002 21.6417 26.5357 21.3098 26.5371 20.975V17.56C26.5357 17.2252 26.6002 16.8933 26.727 16.5835C26.8539 16.2736 27.0405 15.9917 27.2763 15.754C27.5121 15.5163 27.7924 15.3273 28.1012 15.1979C28.41 15.0686 28.7413 15.0013 29.0761 15Z" fill="#377CFD"/>
<path d="M20.924 26.466C21.2589 26.4673 21.5901 26.5346 21.899 26.6639C22.2078 26.7933 22.4881 26.9823 22.7239 27.22C22.9597 27.4577 23.1463 27.7396 23.2731 28.0495C23.3999 28.3593 23.4645 28.6912 23.463 29.026V32.44C23.4657 33.1161 23.1997 33.7656 22.7236 34.2457C22.2475 34.7258 21.6002 34.9971 20.924 35H17.54C17.2052 34.9987 16.8738 34.9314 16.5649 34.8021C16.2561 34.6727 15.9757 34.4838 15.7398 34.2461C15.504 34.0083 15.3172 33.7265 15.1903 33.4166C15.0634 33.1067 14.9987 32.7749 15 32.44V29.025C14.9986 28.6902 15.0631 28.3583 15.1899 28.0485C15.3168 27.7386 15.5034 27.4567 15.7392 27.219C15.975 26.9813 16.2553 26.7923 16.5641 26.6629C16.8729 26.5336 17.2042 26.4663 17.539 26.465H20.924V26.466ZM32.461 26.466C32.7959 26.4673 33.1271 26.5346 33.436 26.6639C33.7448 26.7933 34.0251 26.9823 34.2609 27.22C34.4967 27.4577 34.6833 27.7396 34.8101 28.0495C34.9369 28.3593 35.0015 28.6912 35 29.026V32.44C35.0027 33.1161 34.7367 33.7656 34.2606 34.2457C33.7845 34.7258 33.1372 34.9971 32.461 35H29.076C28.3999 34.9971 27.7526 34.7258 27.2765 34.2457C26.8003 33.7656 26.5344 33.1161 26.537 32.44V29.025C26.5356 28.6902 26.6001 28.3583 26.7269 28.0485C26.8538 27.7386 27.0404 27.4567 27.2762 27.219C27.512 26.9813 27.7923 26.7923 28.1011 26.6629C28.4099 26.5336 28.7412 26.4663 29.076 26.465H32.461V26.466ZM20.924 15C21.2589 15.0013 21.5901 15.0686 21.899 15.1979C22.2078 15.3273 22.4881 15.5163 22.7239 15.754C22.9597 15.9917 23.1463 16.2736 23.2731 16.5835C23.3999 16.8933 23.4645 17.2252 23.463 17.56V20.975C23.4645 21.3098 23.3999 21.6417 23.2731 21.9515C23.1463 22.2614 22.9597 22.5433 22.7239 22.781C22.4881 23.0187 22.2078 23.2077 21.899 23.3371C21.5901 23.4664 21.2589 23.5337 20.924 23.535H17.54C17.205 23.5338 16.8736 23.4666 16.5646 23.3372C16.2556 23.2079 15.9751 23.0188 15.7392 22.781C15.5033 22.5431 15.3166 22.2611 15.1897 21.9511C15.0629 21.641 14.9984 21.309 15 20.974V17.56C14.9986 17.2252 15.0631 16.8933 15.1899 16.5835C15.3168 16.2736 15.5034 15.9917 15.7392 15.754C15.975 15.5163 16.2553 15.3273 16.5641 15.1979C16.8729 15.0686 17.2042 15.0013 17.539 15H20.924Z" fill="#377CFD"/>
</svg>
