<svg width="109" height="17" viewBox="0 0 109 17" fill="none" xmlns="http://www.w3.org/2000/svg">
<g id="Stars">
<path id="Vector" d="M14.2146 16.3433C14.2146 16.8718 13.9545 17.1067 13.4778 16.8718L9.54824 14.8604C9.2744 14.7409 8.97949 14.6792 8.68145 14.6792C8.3834 14.6792 8.08847 14.7409 7.81463 14.8604L3.87066 16.8424C3.39391 17.0773 3.06163 16.8424 3.14831 16.3139L3.81286 11.9094C3.8437 11.6091 3.81344 11.3056 3.72397 11.0177C3.6345 10.7297 3.48773 10.4636 3.29277 10.2357L0.215614 7.03516C-0.160004 6.63876 -0.0300008 6.25704 0.490084 6.16895L4.82413 5.44955C5.12268 5.39162 5.40579 5.27008 5.65479 5.09294C5.9038 4.91581 6.11305 4.68709 6.26881 4.42184L8.33471 0.457826C8.58031 -0.0119837 8.97038 -0.0119837 9.21597 0.457826L11.2385 4.43653C11.3935 4.7039 11.6023 4.93498 11.8512 5.11462C12.1002 5.29426 12.3837 5.41841 12.6832 5.47892L17.0172 6.24236C17.5373 6.33045 17.6674 6.72685 17.2917 7.10857L14.1857 10.2798C13.991 10.5083 13.8434 10.7741 13.7516 11.0616C13.6598 11.3491 13.6256 11.6524 13.6511 11.9535L14.2146 16.3433Z" fill="#FFC200"/>
<path id="Vector_2" style="mix-blend-mode:multiply" opacity="0.5" d="M8.73923 0.281746C8.82591 0.281746 8.92702 0.369835 8.99926 0.516651L11.0218 4.49535C11.1862 4.7871 11.4085 5.04089 11.6746 5.24057C11.9408 5.44025 12.2449 5.58146 12.5676 5.6552L16.9017 6.41864C17.0606 6.41864 17.1762 6.50673 17.2051 6.58014C17.2069 6.64312 17.1933 6.70558 17.1656 6.76194C17.1378 6.8183 17.0968 6.8668 17.0461 6.90313L13.9545 10.089C13.7305 10.3363 13.5606 10.629 13.456 10.9479C13.3514 11.2667 13.3145 11.6045 13.3478 11.9389L13.9834 16.3434C14.0187 16.4481 14.0187 16.5617 13.9834 16.6664C13.963 16.6757 13.9408 16.6805 13.9184 16.6805C13.896 16.6805 13.8738 16.6757 13.8534 16.6664C13.7724 16.6838 13.6888 16.6838 13.6078 16.6664L9.67826 14.6403C9.3703 14.4972 9.03443 14.4269 8.69589 14.4348C8.37158 14.43 8.05045 14.5003 7.75683 14.6403L3.76952 16.681C3.6887 16.6999 3.60474 16.6999 3.52392 16.681C3.5057 16.6891 3.48603 16.6933 3.46615 16.6933C3.44626 16.6933 3.42657 16.6891 3.40835 16.681C3.38411 16.6308 3.37151 16.5755 3.37151 16.5195C3.37151 16.4636 3.38411 16.4083 3.40835 16.3581L4.07291 11.9536C4.10641 11.6215 4.07239 11.2859 3.97299 10.9677C3.87358 10.6495 3.71089 10.3554 3.49503 10.1037L0.417868 6.88845C0.302294 6.77099 0.244498 6.65354 0.273391 6.56545C0.302285 6.47736 0.403422 6.43332 0.576784 6.40396L4.91083 5.68456C5.23399 5.61188 5.53911 5.4728 5.80743 5.27587C6.07575 5.07893 6.30157 4.82831 6.47107 4.5394L8.52253 0.575378C8.59477 0.428563 8.69589 0.340474 8.76813 0.340474L8.73923 0.281746ZM8.76813 0.120248C8.67052 0.131395 8.578 0.170406 8.5013 0.232764C8.4246 0.295121 8.36684 0.378275 8.33472 0.472605L6.26881 4.43663C6.11305 4.70187 5.9038 4.93059 5.6548 5.10773C5.40579 5.28486 5.12268 5.4064 4.82413 5.46434L0.490085 6.18373C-0.0300008 6.27182 -0.160004 6.65354 0.215614 7.04994L3.29277 10.2505C3.48773 10.4784 3.63451 10.7445 3.72397 11.0324C3.81344 11.3204 3.8437 11.6239 3.81286 11.9242L3.14832 16.3287C3.14832 16.7104 3.24944 16.9453 3.52392 16.9453C3.64427 16.9407 3.76236 16.9107 3.87066 16.8572L7.81463 14.8752C8.08296 14.7548 8.3737 14.6947 8.66699 14.699C8.97147 14.6908 9.27353 14.7562 9.54824 14.8899L13.4778 16.9013C13.5861 16.9548 13.7042 16.9848 13.8245 16.9894C14.099 16.9894 14.2579 16.7691 14.2146 16.3727L13.5789 11.9683C13.5534 11.6671 13.5876 11.3639 13.6794 11.0764C13.7712 10.7889 13.9188 10.5231 14.1134 10.2946L17.2484 7.06463C17.624 6.68291 17.494 6.2865 16.9739 6.19841L12.6399 5.43497C12.3404 5.37446 12.0569 5.25032 11.8079 5.07068C11.5589 4.89104 11.3501 4.65996 11.1952 4.39258L9.17264 0.41388C9.13947 0.317448 9.07953 0.232848 9.00005 0.170315C8.92057 0.107781 8.82496 0.0699926 8.72479 0.0615234L8.76813 0.120248Z" fill="url(#paint0_radial_301_4649)"/>
<path id="Vector_3" d="M36.9837 16.3434C37.056 16.8719 36.7381 17.1068 36.2614 16.8719L32.3319 14.8605C32.058 14.741 31.7631 14.6793 31.465 14.6793C31.167 14.6793 30.8721 14.741 30.5982 14.8605L26.6398 16.8279C26.1631 17.0628 25.8452 16.8279 25.9319 16.2993L26.5965 11.8949C26.6455 11.2893 26.4588 10.6883 26.0764 10.2212L23.0281 6.99122C22.6525 6.59482 22.7825 6.21309 23.3026 6.12501L27.6366 5.40561C27.9346 5.34593 28.217 5.22369 28.4657 5.04672C28.7145 4.86975 28.9242 4.64195 29.0813 4.3779L31.1328 0.413881C31.3784 -0.055929 31.7829 -0.055929 32.0285 0.413881L34.051 4.39258C34.2045 4.66117 34.4129 4.89319 34.6621 5.07301C34.9113 5.25282 35.1956 5.37625 35.4957 5.43497L39.8298 6.19841C40.3498 6.2865 40.4654 6.68291 40.1042 7.06463L36.9982 10.2358C36.8016 10.4636 36.6519 10.729 36.5576 11.0164C36.4633 11.3038 36.4265 11.6075 36.4492 11.9095L36.9837 16.3434Z" fill="#FFC200"/>
<path id="Vector_4" style="mix-blend-mode:multiply" opacity="0.5" d="M31.5201 0.281713C31.6068 0.281713 31.6934 0.369802 31.7801 0.516617L33.7882 4.49532C33.9526 4.78707 34.1749 5.04086 34.441 5.24054C34.7072 5.44022 35.0113 5.58142 35.334 5.65516L39.6681 6.4186C39.8414 6.4186 39.9426 6.50669 39.9715 6.5801C40.0003 6.65351 39.9715 6.78564 39.827 6.90309L36.7209 10.089C36.5018 10.339 36.336 10.6325 36.234 10.9509C36.1321 11.2692 36.0962 11.6057 36.1286 11.9389L36.7498 16.3433C36.7741 16.3936 36.7867 16.4488 36.7867 16.5048C36.7867 16.5608 36.7741 16.6161 36.7498 16.6663C36.7316 16.6744 36.7119 16.6786 36.692 16.6786C36.6722 16.6786 36.6525 16.6744 36.6342 16.6663C36.5534 16.6852 36.4695 16.6852 36.3886 16.6663L32.4447 14.6403C32.1413 14.4988 31.8105 14.4286 31.4767 14.4347C31.1476 14.4283 30.8214 14.4986 30.5232 14.6403L26.5504 16.681C26.4694 16.6984 26.3857 16.6984 26.3048 16.681C26.2843 16.6903 26.2622 16.6951 26.2398 16.6951C26.2174 16.6951 26.1952 16.6903 26.1747 16.681C26.1395 16.5763 26.1395 16.4627 26.1747 16.358L26.8537 11.9536C26.8853 11.6204 26.849 11.2842 26.7471 10.9659C26.6452 10.6477 26.4799 10.3542 26.2614 10.1037L23.1843 6.88841C23.0687 6.77096 23.0109 6.65351 23.0398 6.56542C23.0687 6.47733 23.1843 6.43328 23.3432 6.40392L27.6772 5.68453C28.001 5.6135 28.3068 5.47508 28.5753 5.27799C28.8439 5.08089 29.0693 4.8294 29.2375 4.53936L31.26 0.531299C31.3467 0.384484 31.4334 0.296395 31.5201 0.296395V0.281713ZM31.5201 0.0761719C31.3612 0.0761719 31.2023 0.193624 31.0722 0.428529L29.0208 4.39255C28.8636 4.6566 28.654 4.8844 28.4052 5.06137C28.1564 5.23834 27.874 5.36057 27.5761 5.42026L23.242 6.13965C22.722 6.22774 22.5919 6.60946 22.9676 7.00587L26.0447 10.2064C26.4271 10.6736 26.6138 11.2746 26.5648 11.8801L25.9003 16.2846C25.9003 16.6663 26.0014 16.9012 26.2759 16.9012C26.3918 16.8978 26.5054 16.8677 26.6081 16.8131L30.5666 14.8311C30.8345 14.7094 31.1255 14.6492 31.4189 14.655C31.7234 14.6467 32.0255 14.7121 32.3002 14.8458L36.2297 16.8572C36.338 16.9107 36.4561 16.9407 36.5765 16.9453C36.851 16.9453 37.0099 16.7251 36.9521 16.3287L36.3164 11.9242C36.2937 11.6221 36.3305 11.3185 36.4248 11.0311C36.5191 10.7437 36.6689 10.4783 36.8654 10.2505L39.9715 7.07927C40.3326 6.69755 40.217 6.30115 39.697 6.21306L35.3629 5.44962C35.0628 5.3909 34.7786 5.26747 34.5293 5.08766C34.2801 4.90784 34.0717 4.67582 33.9182 4.40723L31.8957 0.428529C31.7657 0.193624 31.6068 0.0761719 31.4478 0.0761719H31.5201Z" fill="url(#paint1_radial_301_4649)"/>
<path id="Vector_5" d="M59.7653 16.3433C59.7653 16.8718 59.5053 17.1067 59.043 16.8718L55.099 14.8604C54.8278 14.7404 54.5352 14.6784 54.2394 14.6784C53.9437 14.6784 53.651 14.7404 53.3799 14.8604L49.4214 16.8424C48.9447 17.0773 48.6124 16.8424 48.6991 16.3139L49.3636 11.9094C49.3945 11.6091 49.3642 11.3056 49.2748 11.0177C49.1853 10.7297 49.0385 10.4636 48.8436 10.2357L45.7664 7.03516C45.3908 6.63876 45.5208 6.25704 46.0409 6.16895L50.3749 5.44955C50.6722 5.38818 50.9539 5.26526 51.2025 5.08846C51.451 4.91165 51.6611 4.68473 51.8196 4.42184L53.8711 0.457826C54.1167 -0.0119837 54.5212 -0.0119837 54.7523 0.457826L56.7749 4.43653C56.9298 4.7039 57.1386 4.93498 57.3876 5.11462C57.6366 5.29426 57.9201 5.41841 58.2195 5.47892L62.5536 6.24236C63.0737 6.33045 63.2037 6.72685 62.8281 7.10857L59.722 10.2798C59.3358 10.7455 59.144 11.3461 59.1875 11.9535L59.7653 16.3433Z" fill="#FFC200"/>
<path id="Vector_6" style="mix-blend-mode:multiply" opacity="0.5" d="M54.3037 0.281746C54.3037 0.281746 54.4771 0.369835 54.5493 0.516651L56.5718 4.49535C56.7362 4.7871 56.9585 5.04089 57.2246 5.24057C57.4908 5.44025 57.7949 5.58146 58.1176 5.6552L62.4517 6.41864C62.6106 6.41864 62.7262 6.50673 62.7551 6.58014C62.7569 6.64312 62.7433 6.70558 62.7156 6.76194C62.6878 6.8183 62.6468 6.8668 62.5961 6.90313L59.5045 10.089C59.2805 10.3363 59.1106 10.629 59.006 10.9479C58.9014 11.2667 58.8645 11.6045 58.8978 11.9389L59.5334 16.3434C59.5687 16.4481 59.5687 16.5617 59.5334 16.6664C59.513 16.6757 59.4908 16.6805 59.4684 16.6805C59.446 16.6805 59.4238 16.6757 59.4034 16.6664C59.3224 16.6838 59.2388 16.6838 59.1578 16.6664L55.2283 14.6403C54.9249 14.4989 54.5941 14.4286 54.2603 14.4348C53.9312 14.4283 53.605 14.4986 53.3069 14.6403L49.3195 16.681C49.2387 16.6999 49.1547 16.6999 49.0739 16.681C49.0557 16.6891 49.036 16.6933 49.0162 16.6933C48.9963 16.6933 48.9766 16.6891 48.9584 16.681C48.9341 16.6308 48.9215 16.5755 48.9215 16.5195C48.9215 16.4636 48.9341 16.4083 48.9584 16.3581L49.6229 11.9536C49.66 11.6213 49.6277 11.2848 49.5281 10.966C49.4285 10.6473 49.2639 10.3534 49.045 10.1037L45.9679 6.88845C45.8523 6.771 45.7945 6.65354 45.8234 6.56545C45.8523 6.47737 45.9534 6.43332 46.1268 6.40396L50.4608 5.68456C50.784 5.61188 51.0891 5.4728 51.3574 5.27587C51.6258 5.07893 51.8516 4.82831 52.0211 4.5394L54.0725 0.575379C54.1448 0.428563 54.2459 0.340474 54.3326 0.340474L54.3037 0.281746ZM54.3326 0.120248C54.2324 0.128717 54.1368 0.166505 54.0573 0.229039C53.9778 0.291573 53.9179 0.376173 53.8847 0.472605L51.8333 4.43663C51.6748 4.69952 51.4647 4.92643 51.2162 5.10323C50.9676 5.28004 50.6859 5.40296 50.3886 5.46434L46.0546 6.18373C45.5345 6.27182 45.4044 6.65354 45.7801 7.04994L48.8572 10.2505C49.0522 10.4784 49.199 10.7445 49.2884 11.0324C49.3779 11.3204 49.4082 11.6239 49.3773 11.9242L48.7128 16.3287C48.7128 16.7104 48.8139 16.9453 49.0884 16.9453C49.2087 16.9407 49.3268 16.9107 49.4351 16.8572L53.3646 14.8459C53.6321 14.7227 53.9234 14.6624 54.217 14.6697C54.5167 14.6632 54.8136 14.7286 55.0838 14.8605L59.0278 16.8719C59.1306 16.9265 59.2442 16.9566 59.3601 16.96C59.6345 16.96 59.7935 16.7398 59.7501 16.3434L59.1145 11.9389C59.071 11.3315 59.2628 10.7309 59.649 10.2652L62.7551 7.09399C63.1307 6.71227 63.0007 6.31587 62.4806 6.22778L58.1465 5.46434C57.847 5.40383 57.5635 5.27968 57.3146 5.10004C57.0656 4.9204 56.8568 4.68932 56.7018 4.42195L54.8093 0.41388C54.7772 0.31955 54.7194 0.236394 54.6427 0.174036C54.566 0.111679 54.4735 0.0726698 54.3759 0.0615234L54.3326 0.120248Z" fill="url(#paint2_radial_301_4649)"/>
<path id="Vector_7" d="M82.5345 16.3433C82.6067 16.8718 82.2889 17.1067 81.8122 16.8718L77.926 14.8605C77.6521 14.7409 77.3572 14.6792 77.0591 14.6792C76.7611 14.6792 76.4662 14.7409 76.1923 14.8605L72.1472 16.8278C71.6705 17.0627 71.3526 16.8278 71.4393 16.2993L72.1039 11.8948C72.1314 11.5947 72.0995 11.292 72.0102 11.0046C71.9209 10.7171 71.7759 10.4508 71.5838 10.2211L68.5066 7.02051C68.131 6.62411 68.261 6.24239 68.7811 6.1543L73.1152 5.43491C73.4131 5.37522 73.6955 5.25298 73.9442 5.07602C74.193 4.89905 74.4027 4.67125 74.5598 4.4072L76.6113 0.443178C76.8569 -0.0266321 77.2614 -0.0266321 77.507 0.443178L79.5295 4.42188C79.6845 4.68926 79.8933 4.92034 80.1423 5.09998C80.3912 5.27962 80.6748 5.40376 80.9742 5.46427L85.3083 6.22771C85.8284 6.3158 85.9439 6.7122 85.5828 7.09392L82.4767 10.2651C82.2802 10.4929 82.1304 10.7583 82.0361 11.0457C81.9418 11.3331 81.905 11.6368 81.9277 11.9388L82.5345 16.3433Z" fill="#FFC200"/>
<path id="Vector_8" style="mix-blend-mode:multiply" opacity="0.5" d="M77.0717 0.282592C77.1584 0.282592 77.245 0.370681 77.3317 0.517497L79.3687 4.4962C79.536 4.7884 79.761 5.04227 80.0295 5.24187C80.298 5.44147 80.6043 5.58248 80.929 5.65604L85.263 6.41948C85.4364 6.41948 85.5375 6.50757 85.5664 6.58098C85.5953 6.65439 85.5664 6.78652 85.4219 6.90398L82.2581 10.0899C82.0389 10.3399 81.8731 10.6333 81.7712 10.9517C81.6692 11.2701 81.6333 11.6065 81.6658 11.9398L82.287 16.3442C82.3112 16.3945 82.3238 16.4497 82.3238 16.5057C82.3238 16.5617 82.3112 16.6169 82.287 16.6672C82.2688 16.6753 82.2491 16.6795 82.2292 16.6795C82.2093 16.6795 82.1896 16.6753 82.1714 16.6672C82.0906 16.6861 82.0066 16.6861 81.9258 16.6672L77.924 14.6558C77.6213 14.5204 77.2941 14.4504 76.9633 14.4504C76.6325 14.4504 76.3053 14.5204 76.0026 14.6558L72.1453 16.6819C72.0643 16.6993 71.9807 16.6993 71.8997 16.6819C71.8793 16.6912 71.8571 16.696 71.8347 16.696C71.8123 16.696 71.7901 16.6912 71.7697 16.6819C71.7345 16.5772 71.7345 16.4636 71.7697 16.3589L72.4487 11.9544C72.4802 11.6213 72.4439 11.2851 72.342 10.9668C72.2401 10.6486 72.0748 10.355 71.8564 10.1046L68.7792 6.88929C68.7321 6.85056 68.6945 6.8012 68.6694 6.74514C68.6443 6.68907 68.6325 6.62784 68.6347 6.5663C68.6347 6.49289 68.7792 6.43417 68.9381 6.4048L73.2722 5.68541C73.594 5.6142 73.8977 5.47559 74.1638 5.27842C74.43 5.08124 74.6528 4.82983 74.818 4.54024L76.8694 0.576224C76.9561 0.429409 77.0428 0.341319 77.1295 0.341319L77.0717 0.282592ZM77.1295 0.121094C76.9705 0.121094 76.8116 0.238546 76.6816 0.473451L74.6302 4.43747C74.473 4.70153 74.2633 4.92933 74.0146 5.10629C73.7658 5.28326 73.4834 5.4055 73.1855 5.46518L68.8514 6.18458C68.3313 6.27267 68.2013 6.65439 68.5769 7.05079L71.6541 10.2514C71.8462 10.481 71.9912 10.7474 72.0805 11.0348C72.1698 11.3223 72.2017 11.6249 72.1742 11.9251L71.5096 16.3295C71.5096 16.7113 71.6108 16.9462 71.8853 16.9462C72.0012 16.9427 72.1148 16.9126 72.2175 16.8581L76.176 14.8761C76.4439 14.7543 76.7349 14.6941 77.0283 14.6999C77.3328 14.6916 77.6349 14.757 77.9096 14.8907L81.8391 16.9021C81.9474 16.9556 82.0655 16.9856 82.1858 16.9902C82.4603 16.9902 82.6193 16.77 82.5615 16.3736L81.9258 11.9691C81.9031 11.667 81.9399 11.3634 82.0342 11.076C82.1285 10.7886 82.2782 10.5232 82.4748 10.2954L85.5809 7.1242C85.942 6.74248 85.8264 6.34608 85.3064 6.25799L80.9723 5.49454C80.6728 5.43403 80.3893 5.30989 80.1403 5.13025C79.8914 4.95061 79.6826 4.71953 79.5276 4.45216L77.5051 0.473451C77.3751 0.238546 77.2161 0.121094 77.0572 0.121094H77.1295Z" fill="url(#paint3_radial_301_4649)"/>
<path id="Vector_9" d="M105.373 16.3433C105.373 16.8718 105.113 17.1067 104.651 16.8718L100.707 14.8605C100.436 14.7404 100.143 14.6785 99.8476 14.6785C99.5518 14.6785 99.2592 14.7404 98.988 14.8605L94.9718 16.8278C94.495 17.0627 94.1772 16.8278 94.2494 16.2993L94.9284 11.8948C94.9539 11.5937 94.9198 11.2904 94.828 11.0029C94.7362 10.7155 94.5885 10.4496 94.3939 10.2211L91.3167 7.02051C90.9556 6.62411 91.0711 6.24239 91.5912 6.1543L95.9253 5.43491C96.2232 5.37522 96.5056 5.25298 96.7544 5.07602C97.0031 4.89905 97.2128 4.67125 97.37 4.4072L99.4214 0.443178C99.667 -0.0266321 100.072 -0.0266321 100.303 0.443178L102.325 4.42188C102.48 4.68926 102.689 4.92034 102.938 5.09998C103.187 5.27962 103.47 5.40376 103.77 5.46427L108.104 6.22771C108.638 6.3158 108.754 6.7122 108.378 7.09392L105.272 10.2651C104.886 10.7308 104.694 11.3314 104.738 11.9388L105.373 16.3433Z" fill="#FFC200"/>
<path id="Vector_10" style="mix-blend-mode:multiply" opacity="0.5" d="M99.8556 0.281746C99.8556 0.281746 100.029 0.369835 100.101 0.516651L102.124 4.49535C102.288 4.7871 102.51 5.04089 102.777 5.24057C103.043 5.44025 103.347 5.58146 103.67 5.6552L108.004 6.41864C108.163 6.41864 108.278 6.50673 108.307 6.58014C108.309 6.64168 108.297 6.70291 108.272 6.75897C108.247 6.81504 108.21 6.8644 108.162 6.90313L105.056 10.089C104.832 10.3363 104.663 10.629 104.558 10.9479C104.453 11.2667 104.416 11.6045 104.45 11.9389L105.085 16.3434C105.121 16.4481 105.121 16.5617 105.085 16.6664C105.065 16.6757 105.043 16.6805 105.02 16.6805C104.998 16.6805 104.976 16.6757 104.955 16.6664C104.874 16.6822 104.791 16.6822 104.71 16.6664L100.78 14.6403C100.477 14.4989 100.146 14.4286 99.8122 14.4348C99.4831 14.4283 99.1569 14.4986 98.8588 14.6403L94.8714 16.681C94.7906 16.6999 94.7067 16.6999 94.6258 16.681C94.6076 16.6891 94.5879 16.6933 94.5681 16.6933C94.5482 16.6933 94.5285 16.6891 94.5103 16.681C94.486 16.6308 94.4734 16.5755 94.4734 16.5195C94.4734 16.4636 94.486 16.4083 94.5103 16.3581L95.1748 11.9536C95.2119 11.6213 95.1796 11.2848 95.08 10.966C94.9804 10.6473 94.8158 10.3534 94.5969 10.1037L91.5198 6.88845C91.4042 6.77099 91.3464 6.65354 91.3753 6.56545C91.4042 6.47736 91.5198 6.43332 91.6787 6.40396L96.0127 5.68456C96.3359 5.61188 96.641 5.4728 96.9093 5.27587C97.1777 5.07893 97.4035 4.82831 97.573 4.5394L99.5955 0.531333C99.6678 0.384517 99.7689 0.296428 99.8556 0.296428V0.281746ZM99.8556 0.0762053C99.7554 0.0846744 99.6598 0.12246 99.5803 0.184994C99.5009 0.247528 99.4409 0.33213 99.4077 0.428562L97.3563 4.39258C97.1991 4.65663 96.9894 4.88443 96.7407 5.0614C96.4919 5.23837 96.2095 5.36061 95.9116 5.42029L91.5776 6.13969C91.0575 6.22778 90.9419 6.6095 91.3031 7.0059L94.3802 10.2065C94.5749 10.435 94.7225 10.7008 94.8143 10.9883C94.9061 11.2758 94.9403 11.5791 94.9148 11.8802L94.2358 16.2846C94.2358 16.6664 94.3369 16.9013 94.6114 16.9013C94.7317 16.8967 94.8498 16.8667 94.9581 16.8132L98.9165 14.8312C99.184 14.708 99.4753 14.6478 99.7689 14.655C100.069 14.6468 100.366 14.7123 100.636 14.8459L104.58 16.8572C104.682 16.9118 104.796 16.9419 104.912 16.9453C105.186 16.9453 105.36 16.7251 105.302 16.3287L104.666 11.9242C104.623 11.3168 104.815 10.7162 105.201 10.2505L108.264 7.06463C108.639 6.68291 108.524 6.2865 107.989 6.19841L103.655 5.43497C103.356 5.37446 103.072 5.25032 102.823 5.07068C102.574 4.89104 102.365 4.65996 102.21 4.39258L100.188 0.41388C100.156 0.31955 100.098 0.236394 100.021 0.174036C99.9446 0.111679 99.8521 0.0726698 99.7545 0.0615234L99.8556 0.0762053Z" fill="#FFD365"/>
</g>
<defs>
<radialGradient id="paint0_radial_301_4649" cx="0" cy="0" r="1" gradientUnits="userSpaceOnUse" gradientTransform="translate(3093.75 600.323) scale(318.718 308.933)">
<stop offset="0.35" stop-color="#FFC200"/>
<stop offset="0.51" stop-color="#FFBD07"/>
<stop offset="0.72" stop-color="#FFAF19"/>
<stop offset="0.98" stop-color="#FF9737"/>
<stop offset="1" stop-color="#FF953A"/>
</radialGradient>
<radialGradient id="paint1_radial_301_4649" cx="0" cy="0" r="1" gradientUnits="userSpaceOnUse" gradientTransform="translate(3385.12 598.255) scale(318.076 307.861)">
<stop offset="0.35" stop-color="#FFC200"/>
<stop offset="0.51" stop-color="#FFBD07"/>
<stop offset="0.72" stop-color="#FFAF19"/>
<stop offset="0.98" stop-color="#FF9737"/>
<stop offset="1" stop-color="#FF953A"/>
</radialGradient>
<radialGradient id="paint2_radial_301_4649" cx="0" cy="0" r="1" gradientUnits="userSpaceOnUse" gradientTransform="translate(3677.89 599.281) scale(317.663 308.397)">
<stop offset="0.35" stop-color="#FFC200"/>
<stop offset="0.51" stop-color="#FFBD07"/>
<stop offset="0.72" stop-color="#FFAF19"/>
<stop offset="0.98" stop-color="#FF9737"/>
<stop offset="1" stop-color="#FF953A"/>
</radialGradient>
<radialGradient id="paint3_radial_301_4649" cx="0" cy="0" r="1" gradientUnits="userSpaceOnUse" gradientTransform="translate(3980.26 598.3) scale(318.076 307.861)">
<stop offset="0.35" stop-color="#FFC200"/>
<stop offset="0.51" stop-color="#FFBD07"/>
<stop offset="0.72" stop-color="#FFAF19"/>
<stop offset="0.98" stop-color="#FF9737"/>
<stop offset="1" stop-color="#FF953A"/>
</radialGradient>
</defs>
</svg>
