<svg width="19" height="16" viewBox="0 0 19 16" fill="none" xmlns="http://www.w3.org/2000/svg">
<path d="M18.8511 2.76364C18.3652 3.34806 17.7778 3.85785 17.1117 4.27332C17.1117 4.42599 17.1117 4.57865 17.1117 4.7398C17.1171 7.51216 15.8889 10.1705 13.7026 12.1189C11.5163 14.0672 8.55473 15.1426 5.48182 15.104C3.7053 15.1093 1.95152 14.7436 0.357882 14.0353C0.271953 14.0015 0.21653 13.9249 0.216856 13.8403V13.747C0.216856 13.6252 0.326298 13.5265 0.461301 13.5265C2.20758 13.4746 3.89156 12.9286 5.27498 11.9659C3.69436 11.9372 2.2722 11.0929 1.61771 9.79467C1.58465 9.72376 1.59495 9.64244 1.64487 9.58008C1.6948 9.51771 1.77714 9.48333 1.86216 9.48935C2.34254 9.53289 2.82773 9.49257 3.29122 9.37061C1.54634 9.04402 0.235262 7.73787 0.0476256 6.13922C0.0409567 6.06253 0.0790718 5.98825 0.148201 5.94321C0.217331 5.89817 0.307482 5.88888 0.386087 5.9187C0.854336 6.105 1.35981 6.20313 1.87156 6.20707C0.342633 5.30223 -0.317761 3.58118 0.263865 2.01729C0.323903 1.86532 0.468142 1.75306 0.643579 1.72175C0.819016 1.69045 0.999771 1.74472 1.11942 1.86462C3.18261 3.84457 6.01746 5.02442 9.02626 5.15538C8.94919 4.87809 8.91128 4.59312 8.91344 4.30725C8.94158 2.80828 9.97018 1.47297 11.5177 0.926459C13.0652 0.379947 14.8254 0.730395 15.9741 1.81373C16.7572 1.67923 17.5142 1.44206 18.2211 1.10978C18.2729 1.08063 18.3386 1.08063 18.3904 1.10978C18.4227 1.1565 18.4227 1.21573 18.3904 1.26245C18.048 1.96946 17.4695 2.56244 16.7357 2.95872C17.3783 2.89152 18.0096 2.75484 18.616 2.55161C18.6671 2.52027 18.7342 2.52027 18.7852 2.55161C18.828 2.56926 18.86 2.603 18.8727 2.64386C18.8854 2.68471 18.8774 2.72853 18.8511 2.76364Z" fill="#7B88A8"/>
</svg>
